<svg width="7" height="14" viewBox="0 0 7 11" fill="none" xmlns="http://www.w3.org/2000/svg">
<path d="M1.27417 11C1.06084 11 0.878481 10.926 0.727089 10.7781C0.575696 10.6301 0.5 10.4495 0.5 10.2362C0.5 10.0228 0.579137 9.83703 0.737411 9.67876L4.90759 5.5189L0.737411 1.35905C0.579137 1.20077 0.5 1.01497 0.5 0.801646C0.5 0.58832 0.575696 0.407681 0.727089 0.259729C0.878481 0.111777 1.06084 0.0378017 1.27417 0.0378017C1.47373 0.0378017 1.65265 0.110057 1.81092 0.254568L6.51785 4.94086C6.68301 5.09225 6.76559 5.28493 6.76559 5.5189C6.76559 5.73911 6.68301 5.93179 6.51785 6.09695L1.81092 10.7832C1.66641 10.9277 1.48749 11 1.27417 11Z" fill="#2997FF"/>
</svg>
